<svg xmlns="http://www.w3.org/2000/svg" width="80" height="80" viewBox="0 0 80 80"><g><g><g/><g><g><g><g><path fill="#d4c17f" d="M73.333 45.337h-56A1.334 1.334 0 0 1 16 44.003V38.67c0-.736.597-1.333 1.333-1.333H24v-1.334a1.334 1.334 0 0 1 2.667 0v1.334H64v-1.334a1.333 1.333 0 1 1 2.666 0v1.334h6.667c.737 0 1.333.597 1.333 1.333v5.333c0 .736-.596 1.334-1.333 1.334zM72 42.67v-2.667H18.667v2.667z"/></g><g><path fill="#d4c17f" d="M47.999 29.33c-2.156 0-3.55 1.639-3.702 1.827a1.326 1.326 0 0 0 .188 1.861 1.34 1.34 0 0 0 1.875-.17c.005-.01.728-.851 1.639-.851.91 0 1.632.841 1.632.841a1.332 1.332 0 0 0 1.876.194 1.332 1.332 0 0 0 .193-1.875c-.152-.188-1.545-1.827-3.701-1.827z"/></g><g><path fill="#d4c17f" d="M17.333 55.996A1.334 1.334 0 0 1 16 54.663V49.33c0-.736.597-1.333 1.333-1.333H24v-1.334a1.334 1.334 0 0 1 2.667 0v1.334H64v-1.334a1.333 1.333 0 1 1 2.666 0v1.334h6.667c.737 0 1.333.597 1.333 1.333v5.333c0 .736-.596 1.333-1.333 1.333zM72 53.33v-2.667H18.667v2.667z"/></g><g><path fill="#d4c17f" d="M54.96 26.177a1.33 1.33 0 0 0 1.877.194 1.332 1.332 0 0 0 .193-1.874c-.152-.188-1.545-1.827-3.701-1.827s-3.55 1.639-3.702 1.827a1.326 1.326 0 0 0 .188 1.861c.566.47 1.402.387 1.874-.17.006-.01.729-.851 1.64-.851.91 0 1.632.84 1.632.84z"/></g><g><path fill="#d4c17f" d="M.007 4.133a1.333 1.333 0 0 1 1.326-1.466h4V1.333a1.334 1.334 0 0 1 2.667 0v1.334h4a1.332 1.332 0 0 1 1.326 1.466l-1.333 13.334a1.333 1.333 0 0 1-1.327 1.2h-8a1.333 1.333 0 0 1-1.326-1.2zm10.52 1.2h-7.72L3.872 16H9.46z"/></g><g><path fill="#d4c17f" d="M37.33 30.667c0 1.49.61 2.877 1.716 3.902a1.33 1.33 0 0 0 1.884-.07c.5-.54.47-1.384-.07-1.886a2.628 2.628 0 0 1-.863-1.946 2.67 2.67 0 0 1 1.75-2.491 1.336 1.336 0 0 0 .445-2.23A2.628 2.628 0 0 1 41.33 24c0-1.387 1.092-2.547 2.485-2.643a1.332 1.332 0 0 0 .892-2.23 2.654 2.654 0 0 1-.71-1.794c0-1.386 1.092-2.546 2.485-2.642a1.332 1.332 0 0 0 .892-2.231 2.66 2.66 0 0 1-.71-1.793c0-1.192.812-2.244 1.973-2.559a1.332 1.332 0 0 0 .89-1.783 2.687 2.687 0 0 1-.197-.992 2.67 2.67 0 0 1 2.667-2.666 2.67 2.67 0 0 1 2.667 2.666c0 .332-.067.666-.196.992a1.332 1.332 0 0 0 .89 1.783 2.664 2.664 0 0 1 1.972 2.559 2.66 2.66 0 0 1-.71 1.793 1.334 1.334 0 0 0 .892 2.23c1.393.097 2.485 1.257 2.485 2.643a2.66 2.66 0 0 1-.71 1.794 1.334 1.334 0 0 0 .891 2.23c1.394.096 2.486 1.256 2.486 2.643 0 .74-.306 1.432-.863 1.947a1.336 1.336 0 0 0 .447 2.229 2.67 2.67 0 0 1 1.75 2.49 1.333 1.333 0 1 0 2.666 0 5.334 5.334 0 0 0-1.979-4.129A5.26 5.26 0 0 0 65.331 24c0-2.085-1.227-3.917-3.016-4.784a5.25 5.25 0 0 0 .349-1.883c0-2.085-1.227-3.917-3.016-4.784.23-.597.35-1.235.35-1.883a5.33 5.33 0 0 0-2.715-4.629A5.34 5.34 0 0 0 51.997 0a5.339 5.339 0 0 0-5.286 6.037 5.33 5.33 0 0 0-2.714 4.63c0 .648.12 1.285.35 1.882-1.79.867-3.017 2.699-3.017 4.784 0 .648.12 1.286.35 1.883-1.79.867-3.016 2.699-3.016 4.784 0 .903.224 1.768.645 2.538a5.333 5.333 0 0 0-1.979 4.129z"/></g><g><path fill="#d4c17f" d="M50.156 18.565a1.338 1.338 0 0 0 1.742-.72c.025-.064.062-.135.1-.204.037.066.072.136.097.198a1.335 1.335 0 0 0 2.472-1.004c-.148-.361-.961-2.165-2.57-2.165-1.608 0-2.421 1.804-2.569 2.165a1.33 1.33 0 0 0 .728 1.73z"/></g><g><path fill="#d4c17f" d="M78.667 77.33H57.333a1.333 1.333 0 1 0 0 2.667h21.334a1.333 1.333 0 1 0 0-2.667z"/></g><g><path fill="#d4c17f" d="M78.67 58.667c.737 0 1.333.597 1.333 1.333v5.333c0 .736-.596 1.333-1.333 1.333h-4v6.667a1.333 1.333 0 1 1-2.667 0v-6.667H18.67v6.667a1.334 1.334 0 0 1-2.667 0v-6.667h-4a1.334 1.334 0 0 1-1.333-1.333V60c0-.736.597-1.333 1.333-1.333h12v-1.334a1.334 1.334 0 0 1 2.667 0v1.334h37.333v-1.334a1.333 1.333 0 1 1 2.667 0v1.334zm-1.333 2.666h-64V64h64z"/></g><g><path fill="#d4c17f" d="M20 77.33H8V22.663a1.334 1.334 0 0 0-2.667 0V77.33h-4a1.334 1.334 0 0 0 0 2.667H20a1.334 1.334 0 0 0 0-2.667z"/></g><g><path fill="#d4c17f" d="M52 77.33h-2.667a1.333 1.333 0 1 0 0 2.667H52a1.333 1.333 0 1 0 0-2.667z"/></g><g><path fill="#d4c17f" d="M41.337 77.33H28.003a1.334 1.334 0 0 0 0 2.667h13.334a1.333 1.333 0 1 0 0-2.667z"/></g></g></g></g></g></g></svg>