<svg xmlns="http://www.w3.org/2000/svg" width="80" height="62" viewBox="0 0 80 62"><g><g><g/><g><g><g><g><path fill="#d4c17f" d="M20 59H1.333a1.333 1.333 0 1 0 0 2.667H20A1.333 1.333 0 1 0 20 59z"/></g><g><path fill="#d4c17f" d="M16 56.33c8.822 0 16-7.179 16-16 0-4.417-1.762-8.53-4.96-11.583a1.337 1.337 0 0 0-1.885.044 1.335 1.335 0 0 0 .044 1.886 13.227 13.227 0 0 1 4.134 9.653c0 7.352-5.981 13.333-13.333 13.333S2.667 47.682 2.667 40.33c0-7.353 5.981-13.333 13.333-13.333a1.333 1.333 0 1 0 0-2.667c-8.823 0-16 7.177-16 16 0 8.821 7.177 16 16 16z"/></g><g><path fill="#d4c17f" d="M22.663 19a1.333 1.333 0 0 1-1.333-1.333v-5.334c0-.737.596-1.333 1.334-1.333h8c2.205 0 4 1.793 4 4 0 2.205-1.795 4-4 4h-2.798l8.395 12.188a1.332 1.332 0 0 1-.341 1.855 1.33 1.33 0 0 1-1.854-.343l-8.438-12.252-7.525 18.27c.347.45.56 1.005.56 1.615A2.67 2.67 0 0 1 15.997 43a2.67 2.67 0 0 1-2.667-2.667 2.662 2.662 0 0 1 2.307-2.63L23.339 19zm1.334-2.667h6.666a1.334 1.334 0 0 0 0-2.667h-6.666z"/></g><g><path fill="#d4c17f" d="M62.667 25.663c0 .736.596 1.334 1.333 1.334 7.352 0 13.333 5.98 13.333 13.333 0 7.352-5.981 13.333-13.333 13.333S50.667 47.682 50.667 40.33c0-3.996 1.77-7.747 4.857-10.293a1.334 1.334 0 0 0-1.699-2.057A15.962 15.962 0 0 0 48 40.33c0 8.821 7.177 16 16 16s16-7.179 16-16c0-8.823-7.177-16-16-16-.737 0-1.333.596-1.333 1.333z"/></g><g><path fill="#d4c17f" d="M41.337 59H28.003a1.333 1.333 0 1 0 0 2.667h13.334a1.333 1.333 0 1 0 0-2.667z"/></g><g><path fill="#d4c17f" d="M41.337 33.856c2.294.596 4 2.665 4 5.144 0 2.477-1.706 4.547-4 5.144v4.19a1.333 1.333 0 1 1 0 2.666H38.67a1.333 1.333 0 1 1 0-2.666v-4.19c-2.295-.597-4-2.667-4-5.144 0-2.479 1.705-4.548 4-5.144v-4.19a1.333 1.333 0 1 1 0-2.666h2.667a1.333 1.333 0 1 1 0 2.667zM42.67 39a2.67 2.67 0 0 0-2.667-2.667A2.67 2.67 0 0 0 37.337 39a2.67 2.67 0 0 0 2.666 2.667A2.67 2.67 0 0 0 42.67 39z"/></g><g><path fill="#d4c17f" d="M61.947 38.65a2.646 2.646 0 0 0-.612 1.68 2.67 2.67 0 0 0 2.667 2.666 2.67 2.67 0 0 0 2.666-2.666c0-1.32-.967-2.411-2.225-2.623l-6.017-16.044h9.518c1.596 0 2.524-1.276 2.699-2.405l1.332-6.667a1.33 1.33 0 0 0-1.307-1.595h-12a1.333 1.333 0 1 0 0 2.667h10.373l-1.018 5.101c-.02.092-.077.222-.079.232H57.426L53.25 7.861c-.003-.005-.007-.008-.008-.013-.003-.005-.001-.01-.003-.015l-2.666-6.666a1.334 1.334 0 1 0-2.477.99l2.429 6.068-5.015 8.776a1.331 1.331 0 0 0 1.156 1.995 1.33 1.33 0 0 0 1.159-.672l3.925-6.868 3.208 8.556-10.162 11.43a1.332 1.332 0 1 0 1.992 1.773l9.228-10.38z"/></g><g><path fill="#d4c17f" d="M78.667 59H57.333a1.333 1.333 0 1 0 0 2.667h21.334a1.333 1.333 0 1 0 0-2.667z"/></g><g><path fill="#d4c17f" d="M52 59h-2.667a1.333 1.333 0 1 0 0 2.667H52A1.333 1.333 0 1 0 52 59z"/></g></g></g></g></g></g></svg>