<svg xmlns="http://www.w3.org/2000/svg" width="80" height="80" viewBox="0 0 80 80"><g><g><g/><g><g><g><g><path fill="#d4c17f" d="M57.337 74.67H20.003c-.736 0-1.333.597-1.333 1.333v2.667a1.334 1.334 0 0 0 2.667 0v-1.333h36a1.334 1.334 0 0 0 0-2.667z"/></g><g><path fill="#d4c17f" d="M29.33 33.333v-8c0-.736.597-1.333 1.333-1.333h5.334c.736 0 1.333.597 1.333 1.333v8c0 .736-.597 1.334-1.333 1.334h-5.334a1.334 1.334 0 0 1-1.333-1.334zM31.997 32h2.666v-5.333h-2.666z"/></g><g><path fill="#d4c17f" d="M17.333 16h-16C.597 16 0 16.597 0 17.333V44a1.334 1.334 0 0 0 2.667 0V18.667h14.666a1.334 1.334 0 0 0 0-2.667z"/></g><g><path fill="#d4c17f" d="M64 57.333c0-.736.597-1.333 1.333-1.333h5.334c.736 0 1.333.597 1.333 1.333v8c0 .736-.597 1.334-1.333 1.334h-5.334A1.334 1.334 0 0 1 64 65.333zM66.667 64h2.666v-5.333h-2.666z"/></g><g><path fill="#d4c17f" d="M13.333 65.333c0 3.22-2.295 5.912-5.333 6.532v6.802a1.334 1.334 0 0 1-2.667 0v-6.802C2.295 71.245 0 68.553 0 65.333 0 65.16.076 48 6.667 48c6.59 0 6.666 17.16 6.666 17.333zm-2.666 0c0-6.642-1.784-14.666-4-14.666s-4 8.024-4 14.666c0 2.206 1.794 4 4 4 2.205 0 4-1.794 4-4z"/></g><g><path fill="#d4c17f" d="M14.667 40H9.333C8.597 40 8 40.597 8 41.333V44a1.334 1.334 0 0 0 2.667 0v-1.333h2.666v6.666a1.334 1.334 0 0 0 2.667 0v-8c0-.736-.597-1.333-1.333-1.333z"/></g><g><path fill="#d4c17f" d="M65.333 34.667A1.334 1.334 0 0 1 64 33.333v-8c0-.736.597-1.333 1.333-1.333h5.334c.736 0 1.333.597 1.333 1.333v8c0 .736-.597 1.334-1.333 1.334zM66.667 32h2.666v-5.333h-2.666z"/></g><g><path fill="#d4c17f" d="M14.667 24c.736 0 1.333.597 1.333 1.333v8c0 .736-.598 1.334-1.333 1.334H9.333A1.334 1.334 0 0 1 8 33.333v-8C8 24.597 8.597 24 9.333 24zm-1.334 8v-5.333h-2.666V32z"/></g><g><path fill="#d4c17f" d="M42.67 25.333c0-.736.597-1.333 1.333-1.333h5.334c.736 0 1.333.597 1.333 1.333v8c0 .736-.597 1.334-1.333 1.334h-5.334a1.334 1.334 0 0 1-1.333-1.334zM45.337 32h2.666v-5.333h-2.666z"/></g><g><path fill="#d4c17f" d="M78.663 16c.736 0 1.334.597 1.334 1.333V76c0 2.205-1.795 4-4 4H65.33c-2.205 0-4-1.795-4-4a4.005 4.005 0 0 1 4.685-3.94 5.295 5.295 0 0 1 4.648-2.727 5.295 5.295 0 0 1 4.648 2.727c.226-.04.455-.06.686-.06.47 0 .914.096 1.333.245V18.667H62.663a1.334 1.334 0 0 1 0-2.667zm-2.666 61.333c.734 0 1.333-.598 1.333-1.333 0-.99-1.188-1.676-2.056-1.116A1.338 1.338 0 0 1 74.05 75a1.33 1.33 0 0 1-.797-.935A2.65 2.65 0 0 0 70.663 72a2.65 2.65 0 0 0-2.59 2.064 1.33 1.33 0 0 1-.796.935c-.403.162-.86.12-1.225-.115a1.317 1.317 0 0 0-.722-.217c-.735 0-1.333.598-1.333 1.333s.598 1.333 1.333 1.333z"/></g><g><path fill="#d4c17f" d="M44.003 18.667a1.334 1.334 0 0 1-1.333-1.334v-8c0-.736.597-1.333 1.333-1.333h5.334c.735 0 1.333.597 1.333 1.333v8c0 .736-.598 1.334-1.333 1.334zM45.337 16h2.666v-5.333h-2.666z"/></g><g><path fill="#d4c17f" d="M42.67 41.333c0-.736.597-1.333 1.333-1.333h5.334c.736 0 1.333.597 1.333 1.333v8c0 .736-.597 1.334-1.333 1.334h-5.334a1.334 1.334 0 0 1-1.333-1.334zM45.337 48h2.666v-5.333h-2.666z"/></g><g><path fill="#d4c17f" d="M30.663 18.667a1.334 1.334 0 0 1-1.333-1.334v-8c0-.736.597-1.333 1.333-1.333h5.334c.736 0 1.333.597 1.333 1.333v8c0 .736-.597 1.334-1.333 1.334zM31.997 16h2.666v-5.333h-2.666z"/></g><g><path fill="#d4c17f" d="M39.057 64.39c-.24.253-.387.6-.387.947s.147.693.387.947c.253.24.6.386.946.386.347 0 .694-.146.947-.386.24-.254.387-.6.387-.947s-.147-.693-.387-.947c-.507-.493-1.387-.493-1.893 0z"/></g><g><path fill="#d4c17f" d="M29.33 49.333v-8c0-.736.597-1.333 1.333-1.333h5.334c.736 0 1.333.597 1.333 1.333v8c0 .736-.597 1.334-1.333 1.334h-5.334a1.334 1.334 0 0 1-1.333-1.334zM31.997 48h2.666v-5.333h-2.666z"/></g><g><path fill="#d4c17f" d="M26.67 57.333c0 .736.597 1.334 1.333 1.334h4v12a1.334 1.334 0 0 0 2.667 0v-12h10.667v12a1.334 1.334 0 0 0 2.666 0v-12h4a1.334 1.334 0 0 0 0-2.667h-24c-.736 0-1.333.597-1.333 1.333z"/></g><g><path fill="#d4c17f" d="M64 41.333c0-.736.597-1.333 1.333-1.333h5.334c.736 0 1.333.597 1.333 1.333v8c0 .736-.597 1.334-1.333 1.334h-5.334A1.334 1.334 0 0 1 64 49.333zM66.667 48h2.666v-5.333h-2.666z"/></g><g><path fill="#d4c17f" d="M57.33 0H22.663c-.736 0-1.333.597-1.333 1.333v69.334a1.334 1.334 0 0 0 2.667 0v-68h32v68a1.334 1.334 0 0 0 2.666 0V1.333C58.663.597 58.066 0 57.33 0z"/></g></g></g></g></g></g></svg>