<svg xmlns="http://www.w3.org/2000/svg" width="12" height="20" viewBox="0 0 12 20"><g><g><g/><g><g><path fill="#fff" d="M10.996.004L8.402 0C5.49 0 3.606 1.932 3.606 4.922v2.27H.998a.408.408 0 0 0-.408.407v3.288c0 .226.183.408.408.408h2.608v8.297c0 .225.182.408.407.408h3.403a.408.408 0 0 0 .407-.408v-8.297h3.05a.408.408 0 0 0 .407-.408l.001-3.288a.409.409 0 0 0-.408-.408h-3.05V5.268c0-.925.22-1.394 1.425-1.394l1.747-.001a.408.408 0 0 0 .408-.408V.412a.408.408 0 0 0-.407-.408z"/></g></g></g></g></svg>