<svg xmlns="http://www.w3.org/2000/svg" width="80" height="80" viewBox="0 0 80 80"><g><g><g/><g><g><g><g><path fill="#d4c17f" d="M53.385 4.617c.183 0 .367-.037.544-.117.381-.171.768-.332 1.16-.48a1.332 1.332 0 0 0 .773-1.72 1.337 1.337 0 0 0-1.718-.775c-.442.168-.878.35-1.306.541a1.332 1.332 0 0 0 .547 2.55z"/></g><g><path fill="#d4c17f" d="M53.333 33.535c.738 0 1.334-.596 1.334-1.334v-.23c0-.35.022-.695.066-1.034.096-.73-.418-1.4-1.146-1.495a1.324 1.324 0 0 0-1.498 1.147c-.058.451-.089.916-.089 1.382v.23c0 .738.596 1.334 1.333 1.334z"/></g><g><path fill="#d4c17f" d="M46.663 33.871c.738 0 1.334-.597 1.334-1.333v-1.355a1.333 1.333 0 1 0-2.667 0v1.355c0 .736.596 1.333 1.333 1.333z"/></g><g><path fill="#d4c17f" d="M54.326 12.775c-.43.236-.85.49-1.253.761a1.332 1.332 0 1 0 1.481 2.216 14.92 14.92 0 0 1 1.059-.642c.644-.355.88-1.167.525-1.81a1.335 1.335 0 0 0-1.812-.525z"/></g><g><path fill="#d4c17f" d="M35.409 12.643a1.33 1.33 0 0 0 1.836.42 1.332 1.332 0 0 0 .421-1.838 23.508 23.508 0 0 0-.788-1.177 1.333 1.333 0 1 0-2.17 1.552c.245.34.478.688.7 1.043z"/></g><g><path fill="#d4c17f" d="M59.792 2.825c.055 0 .112-.004.168-.01.412-.053.83-.093 1.25-.122a1.334 1.334 0 0 0 1.243-1.419A1.338 1.338 0 0 0 61.035.033c-.475.03-.944.077-1.408.136a1.333 1.333 0 1 0 .165 2.656z"/></g><g><path fill="#d4c17f" d="M54.846 24.725a1.335 1.335 0 0 0 1.956 1.813c.277-.299.582-.581.908-.84a1.332 1.332 0 1 0-1.659-2.088c-.43.341-.836.717-1.205 1.115z"/></g><g><path fill="#d4c17f" d="M42.754 13.063a1.33 1.33 0 0 0 1.837-.42c.223-.355.457-.703.7-1.043a1.333 1.333 0 0 0-2.169-1.552c-.274.384-.537.776-.788 1.177a1.333 1.333 0 0 0 .42 1.838z"/></g><g><path fill="#d4c17f" d="M53.333 39.973c.738 0 1.334-.597 1.334-1.333v-.667a1.333 1.333 0 1 0-2.667 0v.667c0 .736.596 1.333 1.333 1.333z"/></g><g><path fill="#d4c17f" d="M46.644 27.095a1.337 1.337 0 0 0 1.503-1.141c.054-.41.127-.816.218-1.216a1.334 1.334 0 1 0-2.601-.59c-.107.477-.195.96-.262 1.447a1.334 1.334 0 0 0 1.142 1.5z"/></g><g><path fill="#d4c17f" d="M37.562 17.182c.133.394.253.793.364 1.198a1.335 1.335 0 0 0 1.636.936c.165-.044.31-.124.439-.218a1.313 1.313 0 0 0 .789.266c.585 0 1.124-.39 1.285-.984.11-.405.23-.804.364-1.198a1.333 1.333 0 0 0-.832-1.692c-.64-.219-1.314.094-1.606.686-.293-.592-.967-.905-1.607-.686a1.332 1.332 0 0 0-.832 1.692z"/></g><g><path fill="#d4c17f" d="M47.783 8.213c.31 0 .623-.108.875-.326.316-.275.64-.542.97-.796a1.333 1.333 0 0 0-1.625-2.114c-.374.288-.74.587-1.094.898a1.333 1.333 0 0 0 .874 2.338z"/></g><g><path fill="#d4c17f" d="M48.826 17.54c-.293.39-.57.793-.83 1.206a1.335 1.335 0 0 0 1.126 2.044c.443 0 .876-.22 1.13-.623.221-.35.456-.692.705-1.021a1.335 1.335 0 0 0-2.13-1.605z"/></g><g><path fill="#d4c17f" d="M61.304 10.695c-.493.037-.979.096-1.457.175a1.334 1.334 0 0 0 .432 2.631c.406-.066.816-.116 1.23-.148a1.334 1.334 0 0 0 1.227-1.433 1.32 1.32 0 0 0-1.432-1.225z"/></g><g><path fill="#d4c17f" d="M66.233 2.92c.415.067.828.145 1.236.235A1.334 1.334 0 0 0 68.04.55c-.457-.102-.919-.189-1.387-.263a1.33 1.33 0 0 0-1.525 1.107 1.33 1.33 0 0 0 1.106 1.525z"/></g><g><path fill="#d4c17f" d="M68.517 11.65c-.46-.165-.928-.311-1.402-.437a1.34 1.34 0 0 0-1.63.948 1.335 1.335 0 0 0 .948 1.63c.4.106.795.229 1.182.369a1.333 1.333 0 1 0 .902-2.51z"/></g><g><path fill="#d4c17f" d="M62.127 21.324a1.333 1.333 0 0 0-1.265 1.397c.036.736.613 1.296 1.397 1.266.41-.02.832-.008 1.237.033a1.334 1.334 0 0 0 .273-2.653 10.736 10.736 0 0 0-1.642-.043z"/></g><g><path fill="#d4c17f" d="M77.683 8.872a1.331 1.331 0 0 0 1.884.087c.544-.496.582-1.34.086-1.884-.16-.175-.322-.347-.486-.515a1.333 1.333 0 0 0-1.907 1.866c.144.146.285.295.423.446z"/></g><g><path fill="#d4c17f" d="M57.333 50.64h-16a1.333 1.333 0 1 0 0 2.667h16c3.739 0 6.667-2.928 6.667-6.667v-2.667c0-.736-.596-1.333-1.333-1.333H17.333c-.737 0-1.333.597-1.333 1.333v2.667c0 3.739 2.928 6.667 6.667 6.667h12v6.666a1.333 1.333 0 1 0 2.666 0v-8c0-.736-.596-1.333-1.333-1.333H22.667c-2.244 0-4-1.757-4-4v-1.333h42.666v1.333c0 2.243-1.756 4-4 4z"/></g><g><path fill="#d4c17f" d="M70.643 31.399c.014.188.02.38.02.572a1.333 1.333 0 1 0 2.667 0c0-.256-.01-.51-.028-.762a1.326 1.326 0 0 0-1.424-1.236 1.334 1.334 0 0 0-1.235 1.426z"/></g><g><path fill="#d4c17f" d="M67.833 24.081a1.335 1.335 0 0 0 .118 1.883c.31.272.599.57.86.884a1.333 1.333 0 1 0 2.05-1.706 10.63 10.63 0 0 0-1.147-1.18 1.333 1.333 0 0 0-1.881.12z"/></g><g><path fill="#d4c17f" d="M41.337 30.563a1.333 1.333 0 1 0-2.667 0v1.483a1.333 1.333 0 1 0 2.667 0z"/></g><g><path fill="#d4c17f" d="M40.003 36.64c-.737 0-1.333.597-1.333 1.333v.667a1.333 1.333 0 1 0 2.667 0v-.667c0-.736-.597-1.333-1.334-1.333z"/></g><g><path fill="#d4c17f" d="M45.33 38.64a1.333 1.333 0 1 0 2.667 0v-.667a1.333 1.333 0 1 0-2.667 0z"/></g><g><path fill="#d4c17f" d="M41.336 23.97c0-.21.003-.419.01-.628a1.326 1.326 0 0 0-.83-1.263c-.051-.022-.109-.022-.162-.038-.1-.027-.195-.067-.303-.07l-.04-.001-.008.001-.008-.001-.04.001c-.108.003-.204.043-.302.07-.054.016-.112.016-.162.038a1.325 1.325 0 0 0-.83 1.263c.006.21.009.417.009.628v.667a1.333 1.333 0 1 0 2.666 0v-.667z"/></g><g><path fill="#d4c17f" d="M32 38.64a1.333 1.333 0 1 0 2.667 0v-.667a1.333 1.333 0 1 0-2.667 0z"/></g><g><path fill="#d4c17f" d="M33.333 33.871c.738 0 1.334-.597 1.334-1.333v-1.355a1.333 1.333 0 1 0-2.667 0v1.355c0 .736.596 1.333 1.333 1.333z"/></g><g><path fill="#d4c17f" d="M27.997 38.64v-.667a1.333 1.333 0 1 0-2.667 0v.667a1.333 1.333 0 1 0 2.667 0z"/></g><g><path fill="#d4c17f" d="M9.31 27.021a1.333 1.333 0 0 0 1.879-.172 7.92 7.92 0 0 1 .86-.884c.552-.488.605-1.33.118-1.882a1.33 1.33 0 0 0-1.881-.12c-.412.363-.799.76-1.148 1.18a1.336 1.336 0 0 0 .172 1.878z"/></g><g><path fill="#d4c17f" d="M73.33 63.97h-28v-6.667a1.333 1.333 0 1 0-2.667 0v8c0 .736.596 1.333 1.334 1.333h28v6.667c0 2.206-1.795 4-4 4h-56c-2.206 0-4-1.794-4-4v-6.666h30.777a1.333 1.333 0 1 0 0-2.667H6.664c-.738 0-1.334.597-1.334 1.333v8a6.674 6.674 0 0 0 6.667 6.667h56a6.674 6.674 0 0 0 6.666-6.667v-8c0-.736-.596-1.333-1.333-1.333z"/></g><g><path fill="#d4c17f" d="M32 70.643v2.667a1.333 1.333 0 1 0 2.667 0v-2.667a1.333 1.333 0 1 0-2.667 0z"/></g><g><path fill="#d4c17f" d="M1.393 25.971l-.048-.001c-.713 0-1.306.567-1.33 1.287-.01.237-.015.474-.015.713a1.333 1.333 0 1 0 2.667 0c0-.208.005-.413.012-.62a1.332 1.332 0 0 0-1.286-1.379z"/></g><g><path fill="#d4c17f" d="M7.149 17.41c.298-.287.609-.562.929-.823A1.332 1.332 0 1 0 6.39 14.52c-.377.31-.744.634-1.093.972a1.333 1.333 0 1 0 1.85 1.918z"/></g><g><path fill="#d4c17f" d="M3.628 19.6a1.334 1.334 0 0 0-1.79.595 16.97 16.97 0 0 0-.602 1.336 1.334 1.334 0 0 0 2.475.991c.154-.385.325-.763.51-1.132a1.332 1.332 0 0 0-.593-1.79z"/></g><g><path fill="#d4c17f" d="M6.034 5.564c.226 0 .455-.057.664-.177A18.2 18.2 0 0 1 7.801 4.8c.66-.325.932-1.125.608-1.785a1.335 1.335 0 0 0-1.785-.608c-.427.21-.846.432-1.256.668a1.334 1.334 0 0 0 .666 2.49z"/></g><g><path fill="#d4c17f" d="M18.67 70.643v2.667a1.333 1.333 0 1 0 2.667 0v-2.667a1.333 1.333 0 1 0-2.667 0z"/></g><g><path fill="#d4c17f" d="M78.025 23.264a1.334 1.334 0 0 0 .743-1.733 16.978 16.978 0 0 0-.603-1.336 1.332 1.332 0 1 0-2.383 1.195c.186.369.356.746.51 1.132a1.333 1.333 0 0 0 1.733.742z"/></g><g><path fill="#d4c17f" d="M79.985 27.257c-.024-.737-.678-1.327-1.379-1.285a1.332 1.332 0 0 0-1.285 1.379c.007.206.012.412.012.62a1.333 1.333 0 1 0 2.666 0c0-.239-.005-.476-.014-.714z"/></g><g><path fill="#d4c17f" d="M74.637 3.074a21.32 21.32 0 0 0-1.255-.668 1.338 1.338 0 0 0-1.785.608c-.324.66-.052 1.46.608 1.785.374.183.741.379 1.101.587a1.335 1.335 0 0 0 1.33-2.312z"/></g><g><path fill="#d4c17f" d="M61.337 73.31v-2.667a1.333 1.333 0 1 0-2.667 0v2.667a1.333 1.333 0 1 0 2.667 0z"/></g><g><path fill="#d4c17f" d="M47.997 73.31v-2.667a1.333 1.333 0 1 0-2.667 0v2.667a1.333 1.333 0 1 0 2.667 0z"/></g><g><path fill="#d4c17f" d="M73.607 14.521a1.333 1.333 0 1 0-1.688 2.065c.322.262.632.536.93.825a1.332 1.332 0 0 0 1.85-1.917 17.56 17.56 0 0 0-1.092-.973z"/></g><g><path fill="#d4c17f" d="M8.122 29.973a1.321 1.321 0 0 0-1.425 1.236c-.018.252-.027.505-.027.762a1.333 1.333 0 1 0 2.667 0c0-.192.006-.385.02-.572a1.334 1.334 0 0 0-1.235-1.426z"/></g><g><path fill="#d4c17f" d="M26.418 29.442a1.334 1.334 0 0 0-1.146 1.496c.044.338.066.682.066 1.033v.23c0 .738.596 1.334 1.334 1.334.737 0 1.333-.596 1.333-1.333v-.231c0-.465-.03-.93-.09-1.381a1.327 1.327 0 0 0-1.497-1.148z"/></g><g><path fill="#d4c17f" d="M24.911 4.02c.392.148.779.309 1.16.48a1.333 1.333 0 0 0 1.09-2.433 24.51 24.51 0 0 0-1.305-.542 1.338 1.338 0 0 0-1.718.775 1.332 1.332 0 0 0 .773 1.72z"/></g><g><path fill="#d4c17f" d="M24.39 15.11c.362.2.716.414 1.059.642a1.333 1.333 0 0 0 1.481-2.216c-.405-.27-.824-.525-1.253-.761a1.335 1.335 0 0 0-1.812.524 1.334 1.334 0 0 0 .525 1.81z"/></g><g><path fill="#d4c17f" d="M1.334 9.306c.36 0 .722-.147.985-.435.137-.15.279-.3.422-.445A1.334 1.334 0 0 0 .835 6.559c-.164.168-.327.34-.487.515a1.334 1.334 0 0 0 .986 2.232z"/></g><g><path fill="#d4c17f" d="M22.295 25.697c.325.259.63.542.907.84a1.334 1.334 0 1 0 1.956-1.813c-.369-.397-.774-.773-1.205-1.115a1.333 1.333 0 1 0-1.658 2.088z"/></g><g><path fill="#d4c17f" d="M29.753 20.167a1.331 1.331 0 0 0 1.84.419c.622-.393.81-1.217.416-1.84a18.487 18.487 0 0 0-.83-1.205 1.335 1.335 0 0 0-2.13 1.605c.248.33.483.67.704 1.021z"/></g><g><path fill="#d4c17f" d="M30.37 7.09c.33.255.655.522.97.797.253.22.565.326.876.326a1.333 1.333 0 0 0 .875-2.339c-.355-.31-.72-.609-1.095-.897A1.334 1.334 0 0 0 30.37 7.09z"/></g><g><path fill="#d4c17f" d="M12.242 3.185c.095 0 .19-.009.286-.03.41-.09.822-.168 1.237-.235a1.331 1.331 0 0 0 1.107-1.525A1.327 1.327 0 0 0 13.346.288a23.7 23.7 0 0 0-1.388.263 1.333 1.333 0 0 0 .284 2.634z"/></g><g><path fill="#d4c17f" d="M18.796 2.693c.421.03.838.07 1.25.122A1.333 1.333 0 0 0 20.38.17a23.177 23.177 0 0 0-1.406-.136 1.34 1.34 0 0 0-1.42 1.24 1.334 1.334 0 0 0 1.243 1.42z"/></g><g><path fill="#d4c17f" d="M32.65 23.143a1.333 1.333 0 0 0-1.007 1.595c.092.4.164.805.22 1.215a1.336 1.336 0 0 0 1.502 1.142 1.334 1.334 0 0 0 1.142-1.5c-.066-.488-.154-.97-.261-1.447a1.337 1.337 0 0 0-1.596-1.005z"/></g><g><path fill="#d4c17f" d="M11.934 14.238c.15 0 .301-.025.45-.078.387-.14.782-.263 1.183-.368a1.335 1.335 0 0 0 .948-1.63 1.338 1.338 0 0 0-1.63-.949c-.474.126-.942.272-1.402.436a1.333 1.333 0 0 0 .45 2.59z"/></g><g><path fill="#d4c17f" d="M18.49 13.354c.415.032.825.081 1.231.148a1.335 1.335 0 0 0 .432-2.632 16.827 16.827 0 0 0-1.457-.175 1.332 1.332 0 1 0-.205 2.659z"/></g><g><path fill="#d4c17f" d="M16.372 24.027c.046 0 .092-.002.139-.007a8.316 8.316 0 0 1 1.237-.033 1.315 1.315 0 0 0 1.398-1.266 1.333 1.333 0 0 0-1.266-1.397 10.703 10.703 0 0 0-1.642.043 1.334 1.334 0 1 0 .135 2.66z"/></g></g></g></g></g></g></svg>