<svg xmlns="http://www.w3.org/2000/svg" width="20" height="20" viewBox="0 0 20 20"><g><g><g/><g><g><g><path fill="#fff" d="M13.75 0A6.25 6.25 0 0 1 20 6.25v7.5A6.25 6.25 0 0 1 13.75 20h-7.5A6.25 6.25 0 0 1 0 13.75v-7.5A6.25 6.25 0 0 1 6.25 0zm4.375 6.25a4.38 4.38 0 0 0-4.375-4.375h-7.5A4.38 4.38 0 0 0 1.875 6.25v7.5a4.38 4.38 0 0 0 4.375 4.375h7.5a4.38 4.38 0 0 0 4.375-4.375z"/></g></g></g><g><g><g><path fill="#fff" d="M15 10a5 5 0 1 1-10 0 5 5 0 0 1 10 0zm-1.875 0A3.129 3.129 0 0 0 10 6.875 3.129 3.129 0 0 0 6.875 10 3.13 3.13 0 0 0 10 13.125 3.13 3.13 0 0 0 13.125 10z"/></g></g></g><g><g><g><path fill="#fff" d="M15.376 5.292a.666.666 0 1 0 0-1.332.666.666 0 0 0 0 1.332z"/></g></g></g></g></g></svg>