<svg xmlns="http://www.w3.org/2000/svg" width="24" height="40" viewBox="0 0 24 40"><g><g><g/><g><path fill="#d4c17f" d="M23.732 11.766v16.468C23.732 34.722 18.454 40 11.966 40S.2 34.722.2 28.234V11.766C.2 5.278 5.478 0 11.966 0s11.766 5.278 11.766 11.766zm-2.4 0c0-5.164-4.202-9.366-9.366-9.366S2.6 6.602 2.6 11.766v16.468c0 5.164 4.202 9.366 9.366 9.366s9.366-4.202 9.366-9.366z"/></g><g><path fill="#d4c17f" d="M11.97 7.96a1.2 1.2 0 0 0-1.2 1.2v5.523a1.2 1.2 0 0 0 2.4 0V9.16a1.2 1.2 0 0 0-1.2-1.2z"/></g></g></g></svg>