<svg xmlns="http://www.w3.org/2000/svg" width="21" height="21" viewBox="0 0 21 21"><g><g><g/><g><g><path fill="#fff" d="M20.524 18.645l-1.537 1.537c-.545.545-1.32.818-2.276.818-.927 0-2.026-.256-3.252-.769-2.396-1.002-5.033-2.871-7.426-5.264C3.64 12.574 1.771 9.937.77 7.54-.273 5.05-.256 3.087.818 2.013L2.355.476a1.61 1.61 0 0 1 1.36-.462c.505.067.94.358 1.194.8l2.983 5.18c.366.635.26 1.44-.259 1.958l-1.02 1.02a.748.748 0 0 0-.056 1 29.51 29.51 0 0 0 2.117 2.354c.758.757 1.55 1.47 2.355 2.117a.748.748 0 0 0 .999-.056l1.02-1.02a1.626 1.626 0 0 1 1.958-.26l5.18 2.984c.441.254.733.689.8 1.193.066.505-.102 1-.462 1.36zm-5.858-4.948a.945.945 0 0 0-1.137.15l-.28.28 6.886 3.93a.934.934 0 0 0 .176-.683.936.936 0 0 0-.464-.694zM3.5.681a.931.931 0 0 0-.556.184l3.951 6.862.257-.256c.301-.301.363-.769.15-1.137L4.32 1.153A.936.936 0 0 0 3.5.681zM18.506 19.7l1.14-1.14-6.895-3.935-.242.242a1.427 1.427 0 0 1-1.907.105 30.204 30.204 0 0 1-2.409-2.166 30.203 30.203 0 0 1-2.166-2.41 1.427 1.427 0 0 1 .105-1.906l.265-.265L2.44 1.353 1.3 2.494c-.853.853-.817 2.597.098 4.785.968 2.315 2.786 4.875 5.117 7.207 2.332 2.331 4.892 4.149 7.207 5.117 2.188.915 3.932.95 4.785.098z"/></g></g></g></g></svg>