<svg xmlns="http://www.w3.org/2000/svg" width="15" height="21" viewBox="0 0 15 21"><g><g><g/><g><g><path fill="#fff" d="M10.25 7.285a2.688 2.688 0 0 1-2.685 2.684A2.688 2.688 0 0 1 4.88 7.285 2.688 2.688 0 0 1 7.565 4.6a2.688 2.688 0 0 1 2.684 2.685zm-.768 0a1.92 1.92 0 0 0-1.917-1.918 1.92 1.92 0 0 0-1.918 1.918 1.92 1.92 0 0 0 1.918 1.917 1.92 1.92 0 0 0 1.917-1.917z"/></g><g><path fill="#fff" d="M13.388 12.502L7.505 21l-5.893-8.51C-.586 9.56-.266 4.725 2.304 2.155A7.306 7.306 0 0 1 7.504 0c1.965 0 3.812.765 5.201 2.154 2.57 2.57 2.89 7.407.683 10.348zm-.622-.448c2.003-2.67 1.717-7.038-.603-9.358A6.545 6.545 0 0 0 7.505.767c-1.76 0-3.414.685-4.658 1.93-2.32 2.32-2.606 6.687-.612 9.345l5.27 7.61z"/></g></g></g></g></svg>